Walking01.mot
version=1
nRows=21
nColumns=19
inDegrees=yes
endheader
time	ground_force1_vx	ground_force1_vy	ground_force1_vz	ground_force1_px	ground_force1_py	ground_force1_pz	ground_force2_vx	ground_force2_vy	ground_force2_vz	ground_force2_px	ground_force2_py	ground_force2_pz	ground_torque1_x	ground_torque1_y	ground_torque1_z	ground_torque2_x	ground_torque2_y	ground_torque2_z
      2.43500000	      0.00000000	      0.00000000	      0.00000000	      0.00000000	      0.00000000	      0.00000000	     13.16706483	    142.41307877	      0.16287389	      0.25629806	      0.00000000	      0.04596548	      0.00000000	      0.00000000	      0.00000000	      0.00000000	      0.27556073	      0.00000000
      2.43600000	      0.00000000	      0.00000000	      0.00000000	      0.00000000	      0.00000000	      0.00000000	     13.12308046	    141.47425900	      0.22756346	      0.25636054	      0.00000000	      0.04591806	      0.00000000	      0.00000000	      0.00000000	      0.00000000	      0.27634695	      0.00000000
      2.43700000	      0.00000000	      0.00000000	      0.00000000	      0.00000000	      0.00000000	      0.00000000	     13.07480030	    140.56651743	      0.29203661	      0.25642326	      0.00000000	      0.04587200	      0.00000000	      0.00000000	      0.00000000	      0.00000000	      0.27727392	      0.00000000
      2.43800000	      0.00000000	      0.00000000	      0.00000000	      0.00000000	      0.00000000	      0.00000000	     13.02270347	    139.68945726	      0.35595455	      0.25648623	      0.00000000	      0.04582683	      0.00000000	      0.00000000	      0.00000000	      0.00000000	      0.27838830	      0.00000000
      2.43900000	      0.00000000	      0.00000000	      0.00000000	      0.00000000	      0.00000000	      0.00000000	     12.96721858	    138.84308967	      0.41901375	      0.25654952	      0.00000000	      0.04578241	      0.00000000	      0.00000000	      0.00000000	      0.00000000	      0.27972585	      0.00000000
      2.44000000	      0.00000000	      0.00000000	      0.00000000	      0.00000000	      0.00000000	      0.00000000	     12.90870916	    138.02797465	      0.48099283	      0.25661355	      0.00000000	      0.04573925	      0.00000000	      0.00000000	      0.00000000	      0.00000000	      0.28129880	      0.00000000
      2.44100000	      0.00000000	      0.00000000	      0.00000000	      0.00000000	      0.00000000	      0.00000000	     12.84746763	    137.24506368	      0.54176736	      0.25667893	      0.00000000	      0.04569841	      0.00000000	      0.00000000	      0.00000000	      0.00000000	      0.28308546	      0.00000000
      2.44200000	      0.00000000	      0.00000000	      0.00000000	      0.00000000	      0.00000000	      0.00000000	     12.78371712	    136.49533082	      0.60127671	      0.25674625	      0.00000000	      0.04566106	      0.00000000	      0.00000000	      0.00000000	      0.00000000	      0.28503509	      0.00000000
      2.44300000	      0.00000000	      0.00000000	      0.00000000	      0.00000000	      0.00000000	      0.00000000	     12.71764360	    135.77945012	      0.65945563	      0.25681581	      0.00000000	      0.04562804	      0.00000000	      0.00000000	      0.00000000	      0.00000000	      0.28709270	      0.00000000
      2.44400000	      0.00000000	      0.00000000	      0.00000000	      0.00000000	      0.00000000	      0.00000000	     12.64944945	    135.09765419	      0.71618697	      0.25688764	      0.00000000	      0.04559965	      0.00000000	      0.00000000	      0.00000000	      0.00000000	      0.28921927	      0.00000000
      2.44500000	      0.00000000	      0.00000000	      0.00000000	      0.00000000	      0.00000000	      0.00000000	     12.57939396	    134.44972546	      0.77129899	      0.25696150	      0.00000000	      0.04557552	      0.00000000	      0.00000000	      0.00000000	      0.00000000	      0.29139008	      0.00000000
      2.44600000	      0.00000000	      0.00000000	      0.00000000	      0.00000000	      0.00000000	      0.00000000	     12.50778777	    133.83511407	      0.82458825	      0.25703697	      0.00000000	      0.04555478	      0.00000000	      0.00000000	      0.00000000	      0.00000000	      0.29358236	      0.00000000
      2.44700000	      0.00000000	      0.00000000	      0.00000000	      0.00000000	      0.00000000	      0.00000000	     12.43495410	    133.25318559	      0.87586221	      0.25711346	      0.00000000	      0.04553634	      0.00000000	      0.00000000	      0.00000000	      0.00000000	      0.29576736	      0.00000000
      2.44800000	      0.00000000	      0.00000000	      0.00000000	      0.00000000	      0.00000000	      0.00000000	     12.36119659	    132.70344843	      0.92500157	      0.25719024	      0.00000000	      0.04551929	      0.00000000	      0.00000000	      0.00000000	      0.00000000	      0.29791103	      0.00000000
      2.44900000	      0.00000000	      0.00000000	      0.00000000	      0.00000000	      0.00000000	      0.00000000	     12.28677700	    132.18566817	      0.97203326	      0.25726674	      0.00000000	      0.04550301	      0.00000000	      0.00000000	      0.00000000	      0.00000000	      0.29997773	      0.00000000
      2.45000000	      0.00000000	      0.00000000	      0.00000000	      0.00000000	      0.00000000	      0.00000000	     12.21186571	    131.70002211	      1.01719080	      0.25734268	      0.00000000	      0.04548741	      0.00000000	      0.00000000	      0.00000000	      0.00000000	      0.30192657	      0.00000000
      2.45100000	      0.00000000	      0.00000000	      0.00000000	      0.00000000	      0.00000000	      0.00000000	     12.13646999	    131.24728535	      1.06093538	      0.25741818	      0.00000000	      0.04547311	      0.00000000	      0.00000000	      0.00000000	      0.00000000	      0.30369912	      0.00000000
      2.45200000	      0.00000000	      0.00000000	      0.00000000	      0.00000000	      0.00000000	      0.00000000	     12.06044728	    130.82865491	      1.10389380	      0.25749367	      0.00000000	      0.04546128	      0.00000000	      0.00000000	      0.00000000	      0.00000000	      0.30522114	      0.00000000
      2.45300000	      0.00000000	      0.00000000	      0.00000000	      0.00000000	      0.00000000	      0.00000000	     11.98366493	    130.44518725	      1.14670065	      0.25756967	      0.00000000	      0.04545296	      0.00000000	      0.00000000	      0.00000000	      0.00000000	      0.30643295	      0.00000000
      2.45400000	      0.00000000	      0.00000000	      0.00000000	      0.00000000	      0.00000000	      0.00000000	     11.90618011	    130.09741914	      1.18986744	      0.25764656	      0.00000000	      0.04544856	      0.00000000	      0.00000000	      0.00000000	      0.00000000	      0.30732011	      0.00000000
      2.45500000	      0.00000000	      0.00000000	      0.00000000	      0.00000000	      0.00000000	      0.00000000	     11.82828192	    129.78539080	      1.23377975	      0.25772453	      0.00000000	      0.04544782	      0.00000000	      0.00000000	      0.00000000	      0.00000000	      0.30791481	      0.00000000
